<svg xmlns="http://www.w3.org/2000/svg" width="82.099" height="93.204" viewBox="0 0 82.099 93.204">
  <g id="submit" transform="translate(-30.501)">
    <g id="Group_12" data-name="Group 12" transform="translate(31.866 1.365)">
      <path id="Path_30" data-name="Path 30" d="M129.333,42.278v71.161h-55.5a2.9,2.9,0,0,1-2.9-2.9V57.293L89.316,39.38h37.119a2.9,2.9,0,0,1,2.9,2.9Z" transform="translate(-64.945 -33.577)" fill="#eaf6ff"/>
      <path id="Path_31" data-name="Path 31" d="M267.667,294.36V322H240.061v-20.05a7.592,7.592,0,0,1,7.593-7.593Z" transform="translate(-203.278 -242.14)" fill="#c8effe"/>
      <path id="Path_32" data-name="Path 32" d="M359.6,39.383H356a2.9,2.9,0,0,1,2.9,2.9v71.16h3.6V42.281a2.9,2.9,0,0,0-2.9-2.9Z" transform="translate(-298.11 -33.579)" fill="#c8effe"/>
      <path id="Path_33" data-name="Path 33" d="M96.4,10.4V81.559H40.9a2.9,2.9,0,0,1-2.9-2.9V22.786L53.312,7.5H93.5a2.9,2.9,0,0,1,2.9,2.9Z" transform="translate(-38.001 -7.5)" fill="#eaf6ff"/>
      <path id="Path_34" data-name="Path 34" d="M261.673,294.36V316.2H240.061V301.953a7.592,7.592,0,0,1,7.593-7.593Z" transform="translate(-203.278 -242.14)" fill="#c8effe"/>
      <path id="Path_35" data-name="Path 35" d="M323.4,7.5h-4.332a2.9,2.9,0,0,1,2.9,2.9v71.16h4.332V10.4a2.9,2.9,0,0,0-2.9-2.9Z" transform="translate(-267.9 -7.5)" fill="#c8effe"/>
      <path id="Path_36" data-name="Path 36" d="M294.52,332.614H271.451a7.592,7.592,0,0,1-7.592-7.592V301.952a7.592,7.592,0,0,1,7.592-7.592H294.52a7.592,7.592,0,0,1,7.592,7.592v23.069A7.592,7.592,0,0,1,294.52,332.614Z" transform="translate(-222.744 -242.14)" fill="#0593fc"/>
      <path id="Path_37" data-name="Path 37" d="M412.827,294.359h-4.332a7.592,7.592,0,0,1,7.592,7.592V325.02a7.592,7.592,0,0,1-7.592,7.592h4.332a7.592,7.592,0,0,0,7.592-7.592V301.951A7.592,7.592,0,0,0,412.827,294.359Z" transform="translate(-341.051 -242.14)" fill="#0181fa"/>
      <g id="Group_11" data-name="Group 11" transform="translate(49.975 58.698)">
        <path id="Path_38" data-name="Path 38" d="M332.356,339.787l-6.851-8.537a3.474,3.474,0,0,0-5.419,0l-6.851,8.537a3.244,3.244,0,0,0,2.515,5.243h2.657v8.482a1.734,1.734,0,0,0,1.734,1.734h5.309a1.734,1.734,0,0,0,1.734-1.734V345.03h2.657A3.244,3.244,0,0,0,332.356,339.787Z" transform="translate(-312.528 -329.95)" fill="#c8effe"/>
        <path id="Path_39" data-name="Path 39" d="M332.356,339.787l-6.851-8.537a3.474,3.474,0,0,0-5.419,0l-6.851,8.537a3.244,3.244,0,0,0,2.515,5.243h2.657v8.482a1.734,1.734,0,0,0,1.734,1.734h5.309a1.734,1.734,0,0,0,1.734-1.734V345.03h2.657A3.244,3.244,0,0,0,332.356,339.787Z" transform="translate(-312.528 -329.95)" fill="#c8effe"/>
        <path id="Path_40" data-name="Path 40" d="M332.356,339.787l-6.851-8.537a3.474,3.474,0,0,0-5.419,0l-6.851,8.537a3.244,3.244,0,0,0,2.515,5.243h2.657v8.482a1.734,1.734,0,0,0,1.734,1.734h5.309a1.734,1.734,0,0,0,1.734-1.734V345.03h2.657A3.244,3.244,0,0,0,332.356,339.787Z" transform="translate(-312.528 -329.95)" fill="#c8effe"/>
      </g>
      <path id="Path_41" data-name="Path 41" d="M364.608,339.787l-6.851-8.537a3.474,3.474,0,0,0-5.419,0l-.38.473a3.454,3.454,0,0,1,2.789,1.3l5.529,6.768a3.244,3.244,0,0,1-2.515,5.243h-1.11a1.547,1.547,0,0,0-1.547,1.547v6.935a1.734,1.734,0,0,1-1.734,1.734H357.7a1.734,1.734,0,0,0,1.734-1.734V345.03h2.657A3.244,3.244,0,0,0,364.608,339.787Z" transform="translate(-294.806 -271.252)" fill="#99e6fc"/>
      <path id="Path_42" data-name="Path 42" d="M38,22.785,53.314,7.5V19.888a2.9,2.9,0,0,1-2.9,2.9Z" transform="translate(-38.003 -7.5)" fill="#c8effe"/>
      <path id="Path_43" data-name="Path 43" d="M85.295,11.825v8.063a2.9,2.9,0,0,1-2.9,2.9h4.332a2.9,2.9,0,0,0,2.9-2.9V7.5Z" transform="translate(-74.315 -7.5)" fill="#99e6fc"/>
      <path id="Path_44" data-name="Path 44" d="M174.987,57.734H162.166a2.983,2.983,0,0,1-2.983-2.983v-.006a2.983,2.983,0,0,1,2.983-2.983h12.821a2.983,2.983,0,0,1,2.983,2.983v.006A2.983,2.983,0,0,1,174.987,57.734Z" transform="translate(-137.123 -43.704)" fill="#99e6fc"/>
      <path id="Path_45" data-name="Path 45" d="M226.534,51.76H222.2a2.983,2.983,0,0,1,2.983,2.983v.006a2.983,2.983,0,0,1-2.983,2.983h4.332a2.983,2.983,0,0,0,2.983-2.983v-.006A2.983,2.983,0,0,0,226.534,51.76Z" transform="translate(-188.67 -43.703)" fill="#62dbfb"/>
    </g>
    <g id="Group_13" data-name="Group 13" transform="translate(30.501 0)">
      <path id="Path_46" data-name="Path 46" d="M103.642,52.219H91.626V8.534h1.731a1.534,1.534,0,0,1,1.533,1.533V47.216a1.365,1.365,0,1,0,2.731,0V10.067A4.268,4.268,0,0,0,93.357,5.8H91.626V4.263A4.268,4.268,0,0,0,87.363,0h-33.8a1.365,1.365,0,0,0,0,2.731h33.8A1.534,1.534,0,0,1,88.9,4.263V52.219H80.573a8.968,8.968,0,0,0-8.958,8.958V74.059H34.764a1.534,1.534,0,0,1-1.533-1.533V18.016H44.28a4.268,4.268,0,0,0,4.263-4.263V1.365A1.365,1.365,0,0,0,46.213.4L30.9,15.684a1.3,1.3,0,0,0-.4.967V72.526a4.268,4.268,0,0,0,4.263,4.263H36.5v1.54a4.267,4.267,0,0,0,4.262,4.263H71.616v1.653A8.968,8.968,0,0,0,80.573,93.2h23.069a8.968,8.968,0,0,0,8.958-8.958V61.177a8.968,8.968,0,0,0-8.958-8.958ZM45.812,4.657v9.1a1.534,1.534,0,0,1-1.532,1.532H35.166Zm-5.053,75.2a1.534,1.534,0,0,1-1.531-1.533v-1.54H71.616v3.073Zm69.111,4.384a6.234,6.234,0,0,1-6.227,6.227H80.573a6.234,6.234,0,0,1-6.227-6.227V61.177a6.234,6.234,0,0,1,6.227-6.227h23.069a6.234,6.234,0,0,1,6.227,6.227Z" transform="translate(-30.501 0)"/>
      <path id="Path_47" data-name="Path 47" d="M320.487,324.433a4.906,4.906,0,0,0-7.549,0l-6.84,8.524c-2.446,2.771-.112,7.623,3.588,7.476h1.274v7.116a3.1,3.1,0,0,0,3.1,3.1h5.309a3.1,3.1,0,0,0,3.1-3.1v-7.116h1.274c3.66.206,6.02-4.671,3.588-7.476Zm4.922,12.211a1.908,1.908,0,0,1-1.651,1.059H321.1a1.365,1.365,0,0,0-1.365,1.365v8.482a.369.369,0,0,1-.368.368h-5.309a.369.369,0,0,1-.369-.368v-8.482a1.365,1.365,0,0,0-1.365-1.365h-2.657a1.861,1.861,0,0,1-1.451-3.024l6.851-8.537a2.165,2.165,0,0,1,3.289,0l6.851,8.537A1.921,1.921,0,0,1,325.409,336.644Z" transform="translate(-255.106 -263.924)"/>
      <path id="Path_48" data-name="Path 48" d="M168.853,52.964a4.352,4.352,0,0,0,0-8.7H156.033a4.352,4.352,0,0,0,0,8.7Zm-14.439-4.355a1.62,1.62,0,0,1,1.618-1.618h12.821a1.621,1.621,0,0,1,0,3.242H156.033A1.621,1.621,0,0,1,154.414,48.609Z" transform="translate(-129.624 -36.204)"/>
      <path id="Path_49" data-name="Path 49" d="M87.137,141.941a1.365,1.365,0,0,0,1.365,1.365h37.834a1.365,1.365,0,1,0,0-2.731H88.5A1.365,1.365,0,0,0,87.137,141.941Z" transform="translate(-76.827 -114.986)"/>
      <path id="Path_50" data-name="Path 50" d="M126.336,185.049H88.5a1.365,1.365,0,1,0,0,2.731h37.834a1.365,1.365,0,1,0,0-2.731Z" transform="translate(-76.827 -151.363)"/>
      <path id="Path_51" data-name="Path 51" d="M264.59,229.521h-7.065a1.365,1.365,0,1,0,0,2.731h7.065a1.365,1.365,0,1,0,0-2.731Z" transform="translate(-215.081 -187.739)"/>
      <path id="Path_52" data-name="Path 52" d="M114.228,230.886a1.365,1.365,0,0,0-1.365-1.365H88.5a1.365,1.365,0,1,0,0,2.731h24.36A1.365,1.365,0,0,0,114.228,230.886Z" transform="translate(-76.827 -187.739)"/>
      <path id="Path_53" data-name="Path 53" d="M105,273.994H88.5a1.365,1.365,0,0,0,0,2.731H105a1.365,1.365,0,0,0,0-2.731Z" transform="translate(-76.827 -224.117)"/>
      <path id="Path_54" data-name="Path 54" d="M105,318.466H88.5a1.365,1.365,0,1,0,0,2.731H105a1.365,1.365,0,0,0,0-2.731Z" transform="translate(-76.827 -260.493)"/>
    </g>
  </g>
</svg>
